<svg xmlns="http://www.w3.org/2000/svg" viewBox="0 0 434.01 434.01"><defs><style>.cls-1{fill:#fff;}</style></defs><title>check</title><g id="Layer_2" data-name="Layer 2"><g id="Layer_1-2" data-name="Layer 1"><path class="cls-1" d="M434,90.53V434H0V0H434V82.91c-.39-1-.77-2.09-1.18-3.14C429.42,71,423,66.14,413.69,65.52c-7.25-.49-12.86,3-17.89,8Q276.12,193.36,156.36,313.12c-1.26,1.26-2,3.09-2.9,4.65l-2.07-.51a27.29,27.29,0,0,0-2.7-3.79Q102.54,267.22,56.31,221c-6.27-6.28-12.53-12.58-18.85-18.82-5-4.93-11-7.34-18-6.33C10.84,197.12,4.88,202,2.05,210.07S1.11,225.7,7.11,231.9c6.58,6.78,13.34,13.37,20,20q54.42,54.44,108.8,108.9c5.57,5.58,11.92,8.31,19.79,7.21,5.77-.8,10-4.18,13.93-8.15Q296.72,232.79,423.84,105.75C428.29,101.3,432.31,96.73,434,90.53Z"/><path d="M434,90.53c-1.7,6.2-5.72,10.77-10.17,15.22q-127.15,127-254.19,254.16c-4,4-8.16,7.35-13.93,8.15-7.87,1.1-14.22-1.63-19.79-7.21Q81.6,306.33,27.13,252c-6.68-6.68-13.44-13.27-20-20-6-6.2-7.91-13.65-5.06-21.83s8.79-12.95,17.36-14.18c7.05-1,13.05,1.4,18.05,6.33C43.78,208.46,50,214.76,56.31,221q46.22,46.2,92.38,92.43a27.29,27.29,0,0,1,2.7,3.79l2.07.51c.95-1.56,1.64-3.39,2.9-4.65Q276,193.28,395.8,73.52c5-5,10.64-8.49,17.89-8,9.32.62,15.73,5.52,19.14,14.25.41,1,.79,2.1,1.18,3.14Z"/></g></g></svg>