<svg xmlns="http://www.w3.org/2000/svg" viewBox="0 0 323.25 108.34"><defs><style>.cls-1{fill:#7c54e3;}</style></defs><title>logo</title><g id="Layer_2" data-name="Layer 2"><g id="Layer_1-2" data-name="Layer 1"><path d="M23.44,38.61V85.34q0,5.79,2.46,8.17c1.64,1.6,4.48,2.39,8.53,2.39h9.69V107H32.26q-11,0-16.49-5.06t-5.5-16.64V38.61H0V27.76H10.27v-20H23.44v20H44.12V38.61Z"/><path d="M74.43,103.28a36,36,0,0,1-14.17-14.4,44,44,0,0,1-5.14-21.62A42.87,42.87,0,0,1,60.4,45.77,36.39,36.39,0,0,1,74.8,31.45a41.69,41.69,0,0,1,20.39-5,41.7,41.7,0,0,1,20.4,5A36.53,36.53,0,0,1,130,45.7a42.76,42.76,0,0,1,5.28,21.56,42.18,42.18,0,0,1-5.43,21.62,37.55,37.55,0,0,1-14.68,14.4,42,42,0,0,1-20.54,5.06A40.57,40.57,0,0,1,74.43,103.28Zm33.5-9.84a25.36,25.36,0,0,0,10-10q3.83-6.66,3.83-16.2t-3.76-16.21a24.63,24.63,0,0,0-9.84-9.91,28.43,28.43,0,0,0-26.4,0,23.91,23.91,0,0,0-9.62,9.91q-3.61,6.66-3.62,16.21T72.12,83.6a23.5,23.5,0,0,0,9.48,9.91,26.6,26.6,0,0,0,13,3.26A27.81,27.81,0,0,0,107.93,93.44Z"/><path class="cls-1" d="M148.78,44.7a45.53,45.53,0,0,1,15.34-14.46,37.92,37.92,0,0,1,18.95-5.07,28.32,28.32,0,0,1,14,3.33,20.39,20.39,0,0,1,8.75,9L212.44,0h24.74l-19,107.06H193.49l2-11.58a34.1,34.1,0,0,1-27,12.74,29.08,29.08,0,0,1-15.12-3.91,26.72,26.72,0,0,1-10.27-11.14,36.77,36.77,0,0,1-3.69-16.93,59,59,0,0,1,.87-9.69A55.45,55.45,0,0,1,148.78,44.7Zm52.37,17.22q0-7.08-4.12-11.14a14.36,14.36,0,0,0-10.49-4.05A20,20,0,0,0,173.09,52q-6.08,5.28-7.67,14.54a29.25,29.25,0,0,0-.44,4.77q0,7.09,4.13,11.22a14,14,0,0,0,10.34,4.12,19.89,19.89,0,0,0,13.46-5.35Q199,76,200.72,66.69A29,29,0,0,0,201.15,61.92Z"/><path class="cls-1" d="M254.54,104A30,30,0,0,1,242,92.16a35.08,35.08,0,0,1-4.41-17.8,49.21,49.21,0,0,1,6.51-25,46.91,46.91,0,0,1,17.94-17.72,51,51,0,0,1,25.46-6.44,39.64,39.64,0,0,1,18.59,4.27,30.92,30.92,0,0,1,12.66,11.94,34.57,34.57,0,0,1,4.48,17.79,48.61,48.61,0,0,1-6.58,25.1,46.92,46.92,0,0,1-18.08,17.58,51.79,51.79,0,0,1-25.54,6.37A39.63,39.63,0,0,1,254.54,104Zm32.91-20.76A24.56,24.56,0,0,0,295,73.71a29.17,29.17,0,0,0,2.68-12.22q0-7.25-3.91-11.14a13.31,13.31,0,0,0-9.84-3.91A17.18,17.18,0,0,0,273,50.13a24.6,24.6,0,0,0-7.31,9.62,30.73,30.73,0,0,0-2.6,12.44q0,7.09,3.76,10.93a13,13,0,0,0,9.7,3.83A17.57,17.57,0,0,0,287.45,83.26Z"/></g></g></svg>